<svg width="858" height="1049" viewBox="0 0 858 1049" fill="none" xmlns="http://www.w3.org/2000/svg">
<path d="M506.998 14.1082C442.73 47.8094 409.813 112.861 432.541 164.588L443.514 190.452V144.994C442.73 93.2669 456.054 69.7544 499.944 39.1882C525.024 22.7294 526.591 21.9457 534.429 35.2694C538.348 43.1069 542.266 65.8356 542.266 86.2131C543.05 124.617 526.591 155.183 493.674 177.128C477.215 188.101 476.431 188.101 481.134 162.237C483.485 147.346 488.971 126.184 492.106 113.644C501.511 85.4294 495.241 86.9969 478.783 117.563C469.378 136.373 465.459 161.453 465.459 206.127V269.611L439.595 240.612C416.083 213.964 338.491 172.426 329.87 181.047C328.303 183.398 344.761 194.371 366.706 206.911C419.218 235.126 408.245 250.017 347.896 230.423C317.33 221.018 297.736 209.262 281.278 188.884C267.954 173.209 259.333 157.534 261.684 153.616C267.954 144.211 341.626 145.778 361.22 155.967C370.625 160.669 387.868 173.993 399.624 184.966C427.055 210.046 434.893 203.776 412.164 174.777C389.435 145.778 352.599 131.671 300.871 131.671C235.82 131.671 231.118 134.806 248.36 169.291C278.143 226.504 329.87 257.071 397.273 257.071C433.325 257.071 438.028 259.422 449 280.583C466.243 314.284 463.891 358.958 443.514 388.741C418.434 423.226 339.275 485.142 254.63 534.518C176.255 580.759 92.3938 619.947 92.3938 611.326C92.3938 608.191 120.609 577.624 155.878 543.139C190.363 508.654 226.415 467.116 235.036 449.873C285.98 351.121 165.283 292.339 86.1238 376.984C72.8 391.092 68.0975 403.632 70.4488 422.442C73.5838 457.711 95.5288 458.494 98.6638 424.009C101.799 394.227 138.635 358.958 166.85 358.958C186.444 358.958 217.794 391.876 217.794 413.037C217.794 435.766 186.444 478.088 130.798 530.599C55.5575 601.137 23.4238 656.783 57.9088 656.783C73.5838 656.783 177.823 608.191 227.199 578.408C247.576 565.868 267.17 554.896 269.521 554.896C271.873 554.896 271.873 565.084 268.738 577.624C265.603 591.732 267.17 602.704 272.656 605.839C285.98 614.461 296.169 601.137 302.439 565.084C307.141 536.869 314.979 528.248 386.3 474.169C521.889 372.282 633.965 245.314 669.234 153.616C677.071 135.589 683.341 119.131 684.909 117.563C685.693 115.996 697.449 120.698 709.989 126.968L733.501 139.508L715.475 79.9432C705.286 47.0257 695.881 19.5944 694.314 18.0269C692.746 16.4594 648 46.2832 618.5 66.7832C568.5 97.0359 577.462 93.9467 615.082 101C627.622 103.352 646.505 115.996 630.83 155.183C609.669 207.694 564.995 275.881 520.321 325.257L488.188 360.526L486.62 285.286L485.836 209.262L521.105 175.561C554.023 144.994 557.941 137.941 561.076 98.7532C563.428 66.6194 560.293 48.5931 550.104 28.2156L535.213 0.000671387L506.998 14.1082Z" fill="url(#paint0_linear_32_146)"/>
<path d="M322.301 317.769C312.113 336.579 276.06 490.978 280.763 495.68C281.546 496.464 288.6 492.545 296.438 487.059C305.059 480.789 315.248 455.709 322.301 423.575C336.409 354.605 348.165 318.553 356.786 318.553C360.705 318.553 371.678 339.714 381.083 366.362C395.974 407.9 399.893 411.819 410.081 402.414C419.486 392.225 419.486 385.955 411.649 360.875C395.19 312.283 381.083 295.04 356.003 295.04C339.544 295.04 330.923 300.527 322.301 317.769Z" fill="#217C2D"/>
<path d="M487.674 409.467C485.322 412.602 493.944 427.493 506.484 443.952C533.131 476.869 534.699 510.571 511.97 525.462C492.376 537.218 473.566 524.678 454.756 484.707C443 461.194 435.946 454.141 428.109 458.843C413.217 468.248 421.839 499.598 447.702 529.381C464.161 548.974 474.35 553.677 497.862 553.677C562.13 553.677 579.372 483.923 527.645 430.628C501.781 403.981 496.295 400.846 487.674 409.467Z" fill="#19732B"/>
<path d="M113.515 1016.91L93.6462 934.643L106.221 931.606L156.687 982.975L150.106 984.565L170.976 915.967L183.551 912.93L203.537 995.168L189.082 998.659L174.574 939.103L177.63 938.365L159.663 995.814L152.847 997.46L110.171 954.657L113.697 953.806L128.088 1013.39L113.515 1016.91ZM214.124 992.611L231.275 901.404L246.318 897.771L303.324 971.068L287.341 974.928L237.582 908.463L243.693 906.987L229.872 988.808L214.124 992.611ZM226.566 969.457L227.785 956.476L272.208 945.747L279.217 956.741L226.566 969.457ZM313.786 968.541L293.918 886.275L327.764 878.101C335.051 876.341 341.563 876.012 347.302 877.113C353.119 878.196 357.968 880.59 361.848 884.297C365.728 888.003 368.397 892.873 369.854 898.906C371.311 904.938 371.159 910.489 369.398 915.558C367.618 920.548 364.387 924.853 359.706 928.471C355.083 931.992 349.129 934.632 341.842 936.392L316.457 942.523L321.599 933.943L329.064 964.851L313.786 968.541ZM367.612 955.542L339.601 930.715L355.936 926.769L384.065 951.568L367.612 955.542ZM321.997 935.588L313.42 929.948L338.1 923.987C344.838 922.36 349.542 919.69 352.211 915.978C354.958 912.246 355.707 907.795 354.458 902.624C353.19 897.374 350.492 893.756 346.364 891.768C342.313 889.761 336.919 889.571 330.181 891.198L305.501 897.159L310.501 887.991L321.997 935.588ZM408.697 925.096L403.503 907.197L435.82 852.004L452.979 847.86L426.33 894.594L420.111 905.922L408.697 925.096ZM399.748 947.78L379.879 865.514L395.157 861.824L415.026 944.09L399.748 947.78ZM457.099 933.929L416.549 904.046L423.959 890.44L474.963 929.615L457.099 933.929ZM487.859 875.629L528.757 865.752L531.794 878.327L490.896 888.204L487.859 875.629ZM497.549 910.603L543.971 899.391L547.065 912.201L485.365 927.102L465.497 844.836L525.551 830.332L528.645 843.142L483.869 853.956L497.549 910.603ZM580.785 904.057L564.039 834.719L536.773 841.304L533.651 828.376L603.46 811.516L606.582 824.444L579.317 831.029L596.063 900.367L580.785 904.057ZM634.794 891.013L614.926 808.747L630.204 805.057L650.072 887.323L634.794 891.013ZM672.324 881.949L652.455 799.683L665.03 796.646L731.921 847.531L725.693 849.035L710.394 785.69L725.554 782.029L745.423 864.295L732.848 867.332L665.957 816.447L672.185 814.943L687.484 878.288L672.324 881.949ZM806.181 850.865C799.756 852.416 793.595 852.826 787.697 852.095C781.858 851.266 776.487 849.454 771.583 846.658C766.66 843.784 762.477 840.027 759.034 835.386C755.592 830.744 753.132 825.368 751.656 819.257C750.18 813.146 749.915 807.24 750.86 801.539C751.805 795.838 753.821 790.625 756.908 785.899C760.055 781.076 764.086 776.993 769 773.65C773.895 770.229 779.555 767.743 785.98 766.191C792.953 764.507 799.495 764.129 805.606 765.058C811.796 765.968 817.341 768.153 822.239 771.613L814.873 783.342C810.885 780.906 806.831 779.398 802.711 778.817C798.65 778.14 794.386 778.34 789.92 779.419C785.611 780.459 781.786 782.129 778.444 784.429C775.102 786.729 772.412 789.493 770.372 792.722C768.333 795.951 766.995 799.508 766.357 803.393C765.799 807.259 766.03 811.308 767.052 815.539C768.055 819.691 769.687 823.36 771.949 826.545C774.289 829.711 777.113 832.305 780.42 834.325C783.708 836.267 787.325 837.508 791.269 838.048C795.214 838.588 799.38 838.328 803.768 837.268C807.842 836.284 811.608 834.712 815.066 832.55C818.583 830.291 821.697 827.217 824.406 823.329L835.856 832.628C832.379 837.116 827.999 840.952 822.715 844.135C817.49 847.221 811.979 849.464 806.181 850.865ZM820.918 834.121L813.482 803.33L827.937 799.839L835.856 832.628L820.918 834.121Z" fill="#004422"/>
<path d="M76.868 903.352L69.5749 873.155L129.513 781.065C134.306 774.023 137.607 767.95 139.418 762.846C141.229 757.742 142.174 753.252 142.253 749.378C142.523 745.457 142.288 741.963 141.547 738.895C139.602 730.843 135.341 725.379 128.762 722.504C122.328 719.391 113.839 719.107 103.294 721.654C94.8581 723.692 87.3909 727.22 80.8924 732.239C74.5856 737.211 69.7733 743.751 66.4553 751.857L27.2407 738.196C32.1315 724.84 40.6688 713.14 52.8525 703.096C65.0363 693.051 80.1394 685.853 98.1618 681.5C113.117 677.888 126.756 677.232 139.08 679.531C151.55 681.592 161.917 686.292 170.183 693.629C178.64 700.921 184.35 710.702 187.313 722.972C188.888 729.491 189.599 736.218 189.448 743.154C189.442 749.851 187.804 757.349 184.532 765.647C181.452 773.898 176.28 783.568 169.015 794.657L119.25 870.897L106.237 856.082L219.836 828.647L229.004 866.609L76.868 903.352ZM235.547 865.029L276.655 642.044L322.67 630.93L461.307 810.504L412.416 822.312L295.868 662.362L314.273 657.916L283.287 853.499L235.547 865.029ZM269.993 811.055L273.816 772.694L377.349 747.689L398.546 780.007L269.993 811.055ZM482.193 805.46L433.573 604.146L520.713 583.1C538.735 578.747 554.983 577.968 569.456 580.763C583.883 583.366 595.963 589.276 605.696 598.491C615.429 607.706 622.125 619.887 625.783 635.033C629.395 649.988 628.974 663.786 624.519 676.428C620.065 689.07 612.036 699.937 600.434 709.029C588.786 717.93 573.95 724.557 555.928 728.909L494.671 743.704L510.307 717.709L528.783 794.208L482.193 805.46ZM511.557 722.885L485.503 705.742L544.171 691.572C558.551 688.099 568.547 682.439 574.159 674.59C579.771 666.741 581.258 657.353 578.618 646.424C575.932 635.304 570.302 627.533 561.726 623.111C553.15 618.689 541.673 618.214 527.293 621.687L468.624 635.857L483.983 608.711L511.557 722.885ZM690.023 755.266L641.403 553.952L687.993 542.7L727.445 706.052L828.389 681.672L837.558 719.634L690.023 755.266Z" fill="#004422"/>
<defs>
<linearGradient id="paint0_linear_32_146" x1="386.71" y1="655.566" x2="386.71" y2="-1.21661" gradientUnits="userSpaceOnUse">
<stop stop-color="#004220"/>
<stop offset="1" stop-color="#99CB39"/>
</linearGradient>
</defs>
</svg>
